<svg width="78" height="80" viewBox="0 0 78 80" fill="none" xmlns="http://www.w3.org/2000/svg">
<path d="M68.72 43.92C68.88 42.64 69 41.36 69 40C69 38.64 68.88 37.36 68.72 36.08L77.16 29.48C77.92 28.88 78.12 27.8 77.64 26.92L69.64 13.08C69.16 12.2 68.08 11.88 67.2 12.2L57.24 16.2C55.16 14.6 52.92 13.28 50.48 12.28L48.96 1.68C48.84 0.72 48 0 47 0H31C30 0 29.16 0.72 29.04 1.68L27.52 12.28C25.08 13.28 22.84 14.64 20.76 16.2L10.8 12.2C9.88003 11.84 8.84003 12.2 8.36003 13.08L0.360029 26.92C-0.159971 27.8 0.0800294 28.88 0.840029 29.48L9.28003 36.08C9.12003 37.36 9.00003 38.68 9.00003 40C9.00003 41.32 9.12003 42.64 9.28003 43.92L0.840029 50.52C0.0800294 51.12 -0.119971 52.2 0.360029 53.08L8.36003 66.92C8.84003 67.8 9.92003 68.12 10.8 67.8L20.76 63.8C22.84 65.4 25.08 66.72 27.52 67.72L29.04 78.32C29.16 79.28 30 80 31 80H47C48 80 48.84 79.28 48.96 78.32L50.48 67.72C52.92 66.72 55.16 65.36 57.24 63.8L67.2 67.8C68.12 68.16 69.16 67.8 69.64 66.92L77.64 53.08C78.12 52.2 77.92 51.12 77.16 50.52L68.72 43.92V43.92ZM39 54C31.28 54 25 47.72 25 40C25 32.28 31.28 26 39 26C46.72 26 53 32.28 53 40C53 47.72 46.72 54 39 54Z" fill="white"/>
</svg>
