<svg width="57" height="57" viewBox="0 0 57 57" fill="none" xmlns="http://www.w3.org/2000/svg">
<g clip-path="url(#clip0_117_25)">
<path d="M28.4762 4.75C15.3662 4.75 4.75 15.39 4.75 28.5C4.75 41.61 15.3662 52.25 28.4762 52.25C41.61 52.25 52.25 41.61 52.25 28.5C52.25 15.39 41.61 4.75 28.4762 4.75ZM36.1475 41.3012L28.5 36.6937L20.8525 41.3012C19.95 41.8475 18.8337 41.04 19.0712 40.0188L21.09 31.3262L14.3688 25.5075C13.585 24.8187 14.0125 23.5125 15.0575 23.4175L23.94 22.6575L27.4075 14.4638C27.8112 13.49 29.1888 13.49 29.5925 14.4638L33.06 22.6337L41.9425 23.3938C42.9875 23.4888 43.415 24.795 42.6075 25.4837L35.8862 31.3025L37.905 40.0188C38.1425 41.04 37.05 41.8475 36.1475 41.3012V41.3012Z" fill="#A2A8AE"/>
</g>
<defs>
<clipPath id="clip0_117_25">
<rect width="57" height="57" fill="white"/>
</clipPath>
</defs>
</svg>
