<svg width="60" height="70" viewBox="0 0 60 70" fill="none" xmlns="http://www.w3.org/2000/svg">
<path d="M58.7678 20.7678C59.7441 19.7915 59.7441 18.2085 58.7678 17.2322L42.8579 1.32233C41.8816 0.34602 40.2986 0.34602 39.3223 1.32233C38.346 2.29864 38.346 3.88155 39.3223 4.85786L53.4645 19L39.3223 33.1421C38.346 34.1184 38.346 35.7014 39.3223 36.6777C40.2986 37.654 41.8816 37.654 42.8579 36.6777L58.7678 20.7678ZM3 21.5L57 21.5V16.5L3 16.5L3 21.5Z" fill="#A2A8AE"/>
<path d="M1.23223 52.7678C0.255919 51.7915 0.255919 50.2085 1.23223 49.2322L17.1421 33.3223C18.1184 32.346 19.7014 32.346 20.6777 33.3223C21.654 34.2986 21.654 35.8816 20.6777 36.8579L6.53553 51L20.6777 65.1421C21.654 66.1184 21.654 67.7014 20.6777 68.6777C19.7014 69.654 18.1184 69.654 17.1421 68.6777L1.23223 52.7678ZM57 53.5L3 53.5V48.5L57 48.5V53.5Z" fill="#A2A8AE"/>
</svg>
