<svg width="80" height="80" viewBox="0 0 80 80" fill="none" xmlns="http://www.w3.org/2000/svg">
<path d="M40 0C17.956 0 0 17.956 0 40C0 62.044 17.956 80 40 80C62.044 80 80 62.044 80 40C80 17.956 62.044 0 40 0ZM40 8C57.7205 8 72 22.2795 72 40C72 57.7205 57.7205 72 40 72C22.2795 72 8 57.7205 8 40C8 22.2795 22.2795 8 40 8ZM36 20V36H20V44H36V60H44V44H60V36H44V20H36Z" fill="#A2A8AE"/>
<rect x="18" y="20" width="44" height="42" fill="white"/>
<path d="M59.4142 31.4142C60.1953 30.6332 60.1953 29.3668 59.4142 28.5858L46.6863 15.8579C45.9052 15.0768 44.6389 15.0768 43.8579 15.8579C43.0768 16.6389 43.0768 17.9052 43.8579 18.6863L55.1716 30L43.8579 41.3137C43.0768 42.0948 43.0768 43.3611 43.8579 44.1421C44.6389 44.9232 45.9052 44.9232 46.6863 44.1421L59.4142 31.4142ZM21 32H58V28H21V32Z" fill="#A2A8AE"/>
<path d="M19.5858 51.5858C18.8047 52.3668 18.8047 53.6332 19.5858 54.4142L32.3137 67.1421C33.0948 67.9232 34.3611 67.9232 35.1421 67.1421C35.9232 66.3611 35.9232 65.0948 35.1421 64.3137L23.8284 53L35.1421 41.6863C35.9232 40.9052 35.9232 39.6389 35.1421 38.8579C34.3611 38.0768 33.0948 38.0768 32.3137 38.8579L19.5858 51.5858ZM58 51H21V55H58V51Z" fill="#A2A8AE"/>
</svg>
